# xmcd
#
# Track frame offsets:
#	150
#	23502
#	55577
#	94810
#	116502
#	119505
#	147966
#	180822
#	209127
#
# Disc length: 3039 seconds
#
# Revision: 2
# Processed by: cddbd v1.5.2PL0 Copyright (c) Steve Scherf et al.
# Submitted via: audiograbber 1.83.01
#
DISCID=750bdd09
DTITLE=Meute - Live In Paris [CD 2)
DYEAR=2019
DGENRE=Big Band
TTITLE0=You and Me [live]
TTITLE1=Every Wall Is A Door [live]
TTITLE2=The Man With The Red Face [live]
TTITLE3=The Drums Pt. 1 [live]
TTITLE4=The Drums Pt. 2 [live]
TTITLE5=Kerberos [live]
TTITLE6=Acamar [live]
TTITLE7=Mental Help [live]
TTITLE8=Miss You [live]
EXTD=
EXTT0=
EXTT1=
EXTT2=
EXTT3=
EXTT4=
EXTT5=
EXTT6=
EXTT7=
EXTT8=
PLAYORDER=
